<?xml version="1.0" encoding="utf-8"?>
<!-- Generator: Adobe Illustrator 24.0.3, SVG Export Plug-In . SVG Version: 6.00 Build 0)  -->
<svg version="1.1" id="图层_1" xmlns="http://www.w3.org/2000/svg" xmlns:xlink="http://www.w3.org/1999/xlink" x="0px" y="0px"
	 width="128px" height="64px" viewBox="0 0 128 64" style="enable-background:new 0 0 128 64;" xml:space="preserve">
<style type="text/css">
	.st0{fill:#EBF0F3;}
	.st1{fill:#D5D6DB;}
	.st2{fill:#E1E6E9;}
	.st3{fill:#27A2DB;}
	.st4{fill:#44C4A1;}
	.st5{fill:#E56353;}
	.st6{fill:#FCD462;}
	.st7{fill:#89C5CD;}
	.st8{fill:#333333;}
	.st9{font-family:'HiraginoSansGB-W6-GBpc-EUC-H';}
	.st10{font-size:18.0022px;}
</style>
<g>
	<g>
		<g>
			<path class="st0" d="M21.91,29.37l17.23-17.32l1.3,1.29L23.21,30.66L21.91,29.37z"/>
			<path class="st1" d="M9.82,14.3l1.49-1.07l11.06,15.42l-1.49,1.07L9.82,14.3z"/>
			<path class="st1" d="M22.79,29.83l1.33-1.26L41.5,47.01l-1.33,1.26L22.79,29.83z"/>
			<path class="st2" d="M7.28,44.22l13.7-13.28l1.27,1.31L8.55,45.54L7.28,44.22z"/>
			<path class="st3" d="M22.57,22.42c-4.27,0-7.72,3.5-7.62,7.79c0.09,4.04,3.38,7.33,7.42,7.43c4.29,0.1,7.8-3.34,7.8-7.61
				c0,0,0-0.01,0-0.01C30.17,25.82,26.77,22.42,22.57,22.42L22.57,22.42z"/>
			<path class="st4" d="M39.5,7.88c-2.77,0-5.02,2.25-5.02,5.02s2.25,5.02,5.02,5.02c2.77,0,5.02-2.25,5.02-5.02
				C44.52,10.13,42.27,7.88,39.5,7.88z"/>
			<path class="st5" d="M10.29,7.88c-3.2,0-5.78,2.66-5.64,5.9c0.13,2.89,2.47,5.24,5.36,5.37c3.24,0.15,5.91-2.42,5.91-5.63
				c0,0,0,0,0-0.01C15.92,10.41,13.4,7.88,10.29,7.88z"/>
			<path class="st6" d="M39.42,39.54c-4.07,0-7.35,3.34-7.26,7.43c0.09,3.85,3.23,6.99,7.08,7.09c4.09,0.1,7.44-3.19,7.44-7.26
				c0,0,0,0,0-0.01C46.68,42.78,43.43,39.54,39.42,39.54C39.42,39.54,39.42,39.54,39.42,39.54L39.42,39.54z"/>
			<path class="st7" d="M9.12,38.25c-3.11,0-5.64,2.52-5.64,5.63s2.52,5.64,5.63,5.65c3.11,0,5.64-2.52,5.64-5.63c0,0,0-0.01,0-0.01
				C14.75,40.78,12.23,38.25,9.12,38.25L9.12,38.25z"/>
		</g>
	</g>
</g>
<text transform="matrix(1 0 0 1 53.002 37.6567)" class="st8 st9 st10">CoIDEA</text>
</svg>
